Angelique Collection (dvd 1 van 5)




DVD 1

De aangrijpende avonturen van de beeldschone Angélique (Michèle Mercier) en haar aanvaringen met het noodlot, netjes verpakt in een box met vijf films. Haar liefde voor de rijke graaf van Toulouse, Joffrey de Peyrac (Robert Hossein), strookt niet altijd met de plannen van andere machtige mannen. Romantiek en passie ten tijde van Louis XIV - de Zonnekoning, met die heerlijke Franse zweem uit de jaren '60...


Beleef de aangrijpende avonturen van de beeldschone Angélique die wordt getroffen door het noodlot. Het verhaal gaat over ontmoetingen met de rijke graaf van Toulouse Joffrey de Peyrac, haar toekomstige man enige ware liefde. Angélique en Joffrey worden geconfronteerd met de macht van invloedrijke personen tijdens het bewind van Louis XIV – de Zonnekoning. Liefde, actie en avontuur maken van Angélique een waar kostuumdrama vol actie. Een tijdloos succes in Frankrijk waar mensen van alle leeftijden van zullen genieten!

Omdat haar vader in geldnoot is geraakt, stemt de jonge Angélique schoorvoetend in met een huwelijk met graaf Joffrey de Peyrac om zodoende haar familie te helpen. De graaf is mismaakt en verlamd, en heeft de reputatie als losbandige magiër. In de eerste instantie vindt ze hem afschrikwekkend maar naarmate ze deze opmerkelijke man beter leert kennen, wordt ze hopeloos verliefd op hem. De koning is echter ook zeer onder de indruk van haar schoonheid en wil haar tot zijn maîtresse maken.


English

Angelique Collection

Angélique, marquise des anges (1964) .... Angélique 
Merveilleuse Angélique (1965) .... Angelique: The Road to Versailles 
Angélique et le roy (1966) .... Angelique and the King 
Indomptable Angélique (1967)... Untamable Angelique
Angélique et le sultan (1968) .... Angelique and the Sultan


Based on the best-selling French novels by Anne and Serge Golon that captured hearts worldwide, the Angelique films chronicle the life of an adventurous heroine in the Louis XIV era. Five classic film adaptations star the beautiful Michele Mercier and the dashing Robert Hossein as her husband and true love. A swashbuckling blend of action, intrigue and passion, the Angelique films seamlessly capture the amazing life of a French country girl whose quest for love and happiness leads her from the gutters of Paris to the Palaces Versailles.



The potential for turning the Angélique books into movies was first realised in the 1960s when five French language films based were released. 

They starred Michèle Mercier, a young but experienced actress from Nice, as Angélique, and Robert Hossein as Joffrey de Peyrac. 

It is believed that Mike Todd, who was famous for producing Around the World in 80 Days and perhaps more famous for one time being married to Elizabeth Taylor, had been interested in producing the films, but he died in a plane crash before he could undertake the project. 

Instead, they were directed by Frenchman Bernard Borderie. All five were produced by Francis Cosne - the final two in partnership with Francois Chavane. 

Today the films are still shown regularly on TV in French-speaking countries as well as in Italy, Japan and Russia, so were certainly a commercial success.

  
 
http://www.dvdbeaver.com/film2/DVDReviews37/angelique_collection.htm

Weblink :  http://www.moviemeter.nl/film/7758

Weblink :  http://www.imdb.com/title/tt0057846







Spotinformatie 
Audio : Frans 
Subs: Danish, Spanish, Finnish, Hungarian, Dutch, Norwegian, Portuguese, Swedish, Czech, Polish
Menu : Yes
Cover : Yes
 
Categorie : Beeld 
Formaat : DVD5 
Bron : Retail
 

Video
ID                               : 224 (0xE0)
Format                           : MPEG Video
Format version                   : Version 2
Format profile                   : Main@Main
Format settings, Matrix          : Default
Duration                         : 29mn 32s
Bit rate mode                    : Variable
Bit rate                         : 4 559 Kbps
Nominal bit rate                 : 8 500 Kbps
Width                            : 720 pixels
Height                           : 576 pixels
Display aspect ratio             : 16/9
Frame rate                       : 25.000 fps
Standard                         : PAL
Colorimetry                      : 4:2:0
Scan type                        : Interlaced
Scan order                       : Top Field First
Bits/(Pixel*Frame)               : 0.440
Stream size                      : 963 MiB (94%)

Audio
ID                               : 128 (0x80)
Format                           : AC-3
Format/Info                      : Audio Coding 3
Duration                         : 29mn 31s
Bit rate mode                    : Constant
Bit rate                         : 96.0 Kbps
Channel(s)                       : 1 channel
Channel positions                : C
Sampling rate                    : 48.0 KHz
Stream size                      : 20.3 MiB (2%)

 
Genre : Avontuur
Romantiek
 
 
*****************************************

Brought to you by 
Pioen

2Lions Team

meer zien??
Kom dan eens kijken op ons forum 




2Lions the site to be for all your Dutch MOVIES and more

******************************************


DON T HIT AND RUN Niet gelijk afhaken als de FILM binnen is blijf seeden. 

Don`t quit after you finished the download, but keep seeding


There are fake torrents from uploaders who use our team name.
Those are not ours, or members from our team.
We 2Lions-Team are not responsible for the fake posts on our name

Wij 2Lions-Team zijn niet verantwoordelijk voor die zieke FAKE posten die op onze naam worden gedaan   

 

 
 
 
